<?xml version="1.0" encoding="utf-8"?><svg viewBox="0 0 25 24" xmlns="http://www.w3.org/2000/svg" xmlns:xlink="http://www.w3.org/1999/xlink"><style>:root>svg{display:none}:root>svg:target{display:block}</style><svg fill="none" viewBox="0 0 12 10" id="arrow-right" xmlns="http://www.w3.org/2000/svg"><path d="M.667 4.817a.5.5 0 01.432-.495l.068-.005h10a.5.5 0 01.068.996l-.068.004h-10a.5.5 0 01-.5-.5z" fill="#3D3D3D"/><path d="M6.78 1.155a.5.5 0 01.65-.757l.056.049 4.034 4.016a.5.5 0 01.048.652l-.048.056-4.034 4.017a.5.5 0 01-.754-.653l.049-.056 3.677-3.662-3.677-3.662z" fill="#3D3D3D"/></svg><svg fill="none" viewBox="0 0 25 24" id="basket" xmlns="http://www.w3.org/2000/svg"><path d="M17.157 20.25H9.892a5.631 5.631 0 01-5.625-5.625V8.86A8.529 8.529 0 00.423 1.72.937.937 0 111.455.155 10.42 10.42 0 014.74 3.632c.172.193 1.561 1.665 3.838 1.665h10.796c2.945-.055 5.25 2.9 4.48 5.744l-1.242 4.953a5.618 5.618 0 01-5.456 4.256zM5.905 6.642c.156.72.237 1.463.237 2.217v5.766a3.754 3.754 0 003.75 3.75h7.265a3.745 3.745 0 003.637-2.837l1.243-4.954c.457-1.689-.913-3.445-2.662-3.412H8.579a6.99 6.99 0 01-2.674-.53zm3.518 16.186c0-.647-.525-1.172-1.172-1.172-1.555.062-1.554 2.283 0 2.344.647 0 1.172-.525 1.172-1.172zm9.328 0c0-.647-.525-1.172-1.172-1.172-1.555.062-1.553 2.283 0 2.344.647 0 1.172-.525 1.172-1.172zm1.561-12.844a.938.938 0 00-.937-.937H8.955c-1.245.05-1.244 1.826 0 1.875h10.42c.517 0 .937-.42.937-.938z" fill="#3D3D3D"/></svg><svg fill="none" viewBox="0 0 19 19" id="calling" xmlns="http://www.w3.org/2000/svg"><path d="M11.96 1.292a6.643 6.643 0 015.868 5.86M11.96 4.244a3.689 3.689 0 012.917 2.917" stroke="#46A358" stroke-width="1.5" stroke-linecap="round" stroke-linejoin="round"/><path clip-rule="evenodd" d="M6.417 12.582C.67 6.834 1.487 4.201 2.092 3.352 2.17 3.217 4.09.344 6.145 2.029c5.106 4.205-1.357 3.61 2.93 7.898 4.287 4.287 3.692-2.176 7.897 2.928 1.685 2.058-1.188 3.976-1.324 4.053-.848.607-3.482 1.424-9.23-4.325z" stroke="#46A358" stroke-width="1.5" stroke-linecap="round" stroke-linejoin="round"/></svg><svg fill="none" viewBox="0 0 8 16" id="facebook" xmlns="http://www.w3.org/2000/svg"><path d="M2 5.333H0V8h2v8h3.333V8h2.4L8 5.333H5.333V4.2c0-.6.134-.867.734-.867H8V0H5.467C3.067 0 2 1.067 2 3.067v2.266z" fill="#46A358" fill-opacity=".6"/></svg><svg fill="none" viewBox="0 0 12 8" id="filter-btn" xmlns="http://www.w3.org/2000/svg"><path d="M10.667 1.667L6 6.333 1.333 1.667" stroke="#3D3D3D" stroke-width="1.5" stroke-linecap="round" stroke-linejoin="round"/></svg><svg fill="none" viewBox="0 0 20 20" id="find" xmlns="http://www.w3.org/2000/svg"><path d="M14.573 16.003c-3.998 3.183-9.585 2.303-12.545-1.349-2.856-3.525-2.677-8.61.421-11.83C5.651-.5 10.685-.944 14.335 1.785a8.903 8.903 0 012.92 3.724 8.83 8.83 0 01.611 4.712c-.22 1.617-.866 3.057-1.916 4.402.085.055.175.095.24.16 1.155 1.15 2.305 2.302 3.46 3.451.273.272.409.59.328.972a.994.994 0 01-1.648.532c-.272-.244-.523-.514-.782-.772l-2.844-2.842c-.039-.038-.08-.073-.131-.12zm1.387-7.016c.01-3.86-3.107-6.98-6.977-6.986A6.965 6.965 0 001.99 8.948a6.983 6.983 0 006.977 7.017c3.844.018 6.982-3.115 6.992-6.978z" fill="#3D3D3D"/></svg><svg viewBox="0 0 24 24" fill="none" stroke="currentColor" stroke-width="2" stroke-linecap="round" stroke-linejoin="round" class="gfeather gfeather-heart" id="heart" xmlns="http://www.w3.org/2000/svg"><path d="M20.84 4.61a5.5 5.5 0 00-7.78 0L12 5.67l-1.06-1.06a5.5 5.5 0 00-7.78 7.78l1.06 1.06L12 21.23l7.78-7.78 1.06-1.06a5.5 5.5 0 000-7.78z"/></svg><svg fill="none" viewBox="0 0 16 16" id="insta" xmlns="http://www.w3.org/2000/svg"><path d="M8 1.467c2.133 0 2.4 0 3.267.066 2.2.067 3.2 1.134 3.266 3.267.067.867.067 1.067.067 3.2s0 2.4-.067 3.2c-.066 2.133-1.133 3.2-3.266 3.267-.867.066-1.067.066-3.267.066-2.133 0-2.4 0-3.2-.066-2.2-.067-3.2-1.134-3.267-3.267-.066-.867-.066-1.067-.066-3.2s0-2.4.066-3.2C1.6 2.667 2.667 1.6 4.8 1.533c.8-.066 1.067-.066 3.2-.066zM8 0C5.8 0 5.533 0 4.733.067 1.8.2.2 1.8.067 4.733 0 5.533 0 5.8 0 8s0 2.467.067 3.267C.2 14.2 1.8 15.8 4.733 15.933 5.533 16 5.8 16 8 16s2.467 0 3.267-.067C14.2 15.8 15.8 14.2 15.933 11.267 16 10.467 16 10.2 16 8s0-2.467-.067-3.267C15.8 1.8 14.2.2 11.267.067 10.467 0 10.2 0 8 0zm0 3.867C5.733 3.867 3.867 5.733 3.867 8S5.733 12.133 8 12.133 12.133 10.267 12.133 8 10.267 3.867 8 3.867zm0 6.8A2.675 2.675 0 015.333 8c0-1.467 1.2-2.667 2.667-2.667 1.467 0 2.667 1.2 2.667 2.667 0 1.467-1.2 2.667-2.667 2.667zM12.267 2.8c-.534 0-.934.4-.934.933 0 .534.4.934.934.934.533 0 .933-.4.933-.934 0-.533-.4-.933-.933-.933z" fill="#46A358" fill-opacity=".6"/></svg><svg fill="none" viewBox="0 0 16 16" id="linkedin" xmlns="http://www.w3.org/2000/svg"><path d="M3.333 1.667a1.65 1.65 0 01-1.666 1.666A1.65 1.65 0 010 1.667 1.65 1.65 0 011.667 0a1.65 1.65 0 011.666 1.667zm0 3H0v10.666h3.333V4.667zm5.334 0H5.333v10.666h3.334v-5.6c0-3.133 4-3.4 4 0v5.6H16V8.6c0-5.267-5.933-5.067-7.333-2.467V4.667z" fill="#46A358" fill-opacity=".6"/></svg><svg fill="none" viewBox="0 0 14 18" id="location" xmlns="http://www.w3.org/2000/svg"><path clip-rule="evenodd" d="M9.092 7.925a2.083 2.083 0 10-4.167 0 2.083 2.083 0 004.167 0z" stroke="#46A358" stroke-width="1.5" stroke-linecap="round" stroke-linejoin="round"/><path clip-rule="evenodd" d="M7 16.5C4.585 16.5.75 12.299.75 7.832.75 4.335 3.548 1.5 7 1.5s6.25 2.835 6.25 6.332C13.25 12.3 9.415 16.5 7 16.5z" stroke="#46A358" stroke-width="1.5" stroke-linecap="round" stroke-linejoin="round"/></svg><svg fill="none" viewBox="0 0 18 18" id="logout" xmlns="http://www.w3.org/2000/svg"><path d="M17.16 9.1H7.126M14.721 6.67l2.44 2.43-2.44 2.43M12.634 5.358c-.275-2.983-1.392-4.066-5.833-4.066C.883 1.292.883 3.217.883 9s0 7.708 5.918 7.708c4.441 0 5.558-1.083 5.833-4.066" stroke="#fff" stroke-width="1.5" stroke-linecap="round" stroke-linejoin="round"/></svg><svg fill="none" viewBox="0 0 18 18" id="msg" xmlns="http://www.w3.org/2000/svg"><path d="M13.62 6.516s-2.674 3.21-4.63 3.21c-1.957 0-4.662-3.21-4.662-3.21" stroke="#46A358" stroke-width="1.5" stroke-linecap="round" stroke-linejoin="round"/><path clip-rule="evenodd" d="M1.043 8.974c0-5.698 1.985-7.597 7.937-7.597s7.936 1.899 7.936 7.597-1.984 7.597-7.936 7.597-7.937-1.9-7.937-7.597z" stroke="#46A358" stroke-width="1.5" stroke-linecap="round" stroke-linejoin="round"/></svg><svg fill="none" viewBox="0 0 12 8" id="next" xmlns="http://www.w3.org/2000/svg"><path d="M10.667 1.667L6 6.333 1.333 1.667" stroke="#3D3D3D" stroke-width="1.5" stroke-linecap="round" stroke-linejoin="round"/></svg><svg fill="none" viewBox="0 0 19 14" id="union" xmlns="http://www.w3.org/2000/svg"><path fill-rule="evenodd" clip-rule="evenodd" d="M15.165 4.43h0zm-10.84-.073c2.593-.161 7.423-.161 10.017 0v.007c.063.633.088 1.477.088 2.655 0 1.163-.025 2.008-.086 2.646-2.648.105-7.373.105-10.021 0-.062-.632-.087-1.474-.087-2.646 0-1.178.025-2.022.088-2.655v-.007zM15.241 9.61l-.005.001h.005zM3.498 9.608H3.5h-.003zM0 7.019c0 4.822.389 6.611 3.422 6.844 2.8.156 9.022.156 11.822 0 3.033-.155 3.422-2.022 3.422-6.844 0-4.822-.389-6.61-3.422-6.844-2.8-.233-9.022-.233-11.822 0C.39.408 0 2.197 0 7.019zm3.498-2.588L3.5 4.43h-.003zm6.284 4.308a1.923 1.923 0 110-3.44c1.417.709 1.417 2.731 0 3.44z" fill="#46A358" fill-opacity=".6"/></svg></svg>