<svg width="61" height="92" viewBox="0 0 61 92" fill="none" xmlns="http://www.w3.org/2000/svg">
<path d="M19.2966 44.7271C19.8558 40.0951 16.6227 36.6367 13.1777 33.9695C11.1711 32.4136 9.20958 31.1156 7.90192 28.8885C7.23457 27.7461 6.59427 26.4569 6.22001 25.19C5.48952 22.7229 6.75209 18.8466 9.87694 21.6916C11.6761 23.3319 12.091 25.4478 13.4663 27.2704C14.2418 28.3017 15.4323 28.8529 16.6723 28.195C20.4014 26.2213 17.5155 19.3755 16.6813 16.655C15.6712 13.3611 15.1392 10.1916 16.8391 7.0221C17.3983 5.9819 18.025 4.91058 18.742 3.97262C19.2064 3.36806 19.7971 2.7146 20.46 2.29674C21.8308 1.42546 22.6559 1.42546 24.171 1.88777C25.7853 2.3812 25.7988 2.46566 26.128 3.99485C26.2813 4.70165 26.3444 5.47958 26.3805 6.20861C26.4572 7.75113 26.3309 9.30699 26.0108 10.8228C25.411 13.6989 23.684 16.2416 23.3053 19.1622C23.0257 21.3093 23.2196 28.1328 26.8089 27.4927C31.0159 26.7414 30.7138 20.0824 34.9073 19.1933C38.3974 18.4509 40.1019 22.2339 38.6229 24.8299C37.8203 26.2435 36.4856 27.3371 35.2004 28.3017C32.9098 30.022 30.1096 30.92 27.8595 32.6581C23.7877 35.8143 25.1405 40.7752 26.8134 44.8427C27.1381 45.6295 28.4457 45.2828 28.1165 44.4871C26.9893 41.7443 25.5734 38.3881 27.0975 35.5076C28.5088 32.8404 32.2334 31.9069 34.6368 30.3332C37.8834 28.2084 42.5414 24.2076 39.7908 19.9979C37.4911 16.4728 33.036 17.6508 30.9348 20.6025C30.299 21.496 29.8075 22.4784 29.2438 23.4163C28.9868 23.8431 28.7298 24.2743 28.4277 24.6743C28.2112 24.9322 27.9948 25.1856 27.7784 25.4434C26.0694 25.8168 25.1856 25.3678 25.127 24.0876C23.4135 20.4958 25.4877 16.8151 26.6511 13.5033C27.5168 11.0406 27.8866 8.41792 27.7017 5.81742C27.5754 4.01707 27.3861 1.58105 25.6681 0.505281C24.1575 -0.441568 21.8353 0.100759 20.3518 0.838679C18.1423 1.94112 16.7895 4.27935 15.6712 6.35975C12.7989 11.703 15.6983 16.4105 16.767 21.7938C16.9068 22.5095 17.263 24.0787 17.024 24.8744C16.2935 25.5323 15.563 26.1858 14.828 26.8437C14.4087 26.3147 14.093 25.7368 13.8721 25.1011C13.4482 24.172 13.0018 23.3052 12.3841 22.4784C11.4101 21.1714 9.57032 19.0244 7.68999 19.1311C5.86378 19.2377 4.7906 21.1403 4.59671 22.7273C4.30812 25.0744 5.58421 27.5771 6.73856 29.5686C9.94007 35.0853 18.8637 37.1168 17.9439 44.736C17.8447 45.5762 19.1974 45.5717 19.2966 44.7271Z" fill="#46A358"/>
<path d="M30.9843 22.5627C31.9583 17.6951 30.1186 13.2454 29.7353 8.44006C29.5053 5.5684 30.7454 0.976394 34.6864 2.28332C37.6218 3.25684 38.7356 6.70639 38.5372 9.46693C38.3929 11.485 37.4099 17.4062 41.3509 16.855C44.7328 16.3838 46.4778 10.8271 48.1192 8.47118C49.526 6.45301 52.6328 3.50578 55.3654 4.32816C59.6942 5.63063 56.9211 10.7516 54.928 12.7653C51.5687 16.1571 47.9884 19.1576 45.0259 22.9361C43.3079 25.1277 41.8199 28.7284 45.6301 29.7108C47.0956 30.0886 48.507 29.5863 49.8281 28.9906C50.8923 28.5106 51.9069 27.9371 53.0387 27.6215C55.1039 27.0436 57.4982 27.497 56.132 30.0264C52.935 35.952 45.6166 31.5823 40.8955 34.0672C36.8913 36.1787 35.9579 40.8463 36.3367 44.9404C36.4134 45.7894 37.7706 45.7983 37.6895 44.9404C37.4234 42.0865 37.6534 39.0015 39.6555 36.7388C42.2437 33.8138 45.6977 34.8807 49.1247 34.814C52.6238 34.7473 57.1285 33.0759 57.8545 29.2218C58.6481 24.9988 53.7692 25.8167 51.2666 26.8347C50.1618 27.2837 49.1292 27.9816 47.9749 28.3105C47.0595 28.5728 45.6121 28.715 44.8906 27.866C44.1917 27.0392 44.7553 25.6478 45.1882 24.9454C46.7709 22.3671 49.1969 20.0156 51.3522 17.8952C54.3238 14.9702 59.3921 11.8673 58.9547 7.09758C58.621 3.44799 55.2031 2.10995 52.0512 3.4791C50.1573 4.30149 48.5926 5.6084 47.3571 7.23983C45.7428 9.36913 44.8816 12.2941 42.9562 14.17C42.2618 14.8457 41.5809 16.2815 40.0297 14.8724C39.3398 14.2456 39.5472 12.5741 39.6194 11.7162C39.7141 10.5915 39.9576 9.4936 39.9215 8.36005C39.8629 6.44412 39.2181 4.50152 37.96 3.01679C35.2996 -0.112705 30.7318 0.0251002 28.9642 3.95031C27.9091 6.29743 28.3735 8.98239 28.8154 11.4184C29.4648 15.0146 30.4162 18.5442 29.6812 22.2071C29.5144 23.0473 30.8175 23.4073 30.9843 22.5627Z" fill="#46A358"/>
<path d="M30.6823 30.9956C30.0465 35.5787 29.0049 40.0684 27.5529 44.4693C27.2824 45.2872 28.59 45.6384 28.8561 44.8249C30.308 40.4241 31.3496 35.9343 31.9854 31.3512C32.1027 30.5066 30.7995 30.1465 30.6823 30.9956Z" fill="#46A358"/>
<path d="M14.5033 43.9626C14.3275 40.433 11.8429 38.0503 8.98411 36.2366C7.13084 35.0586 5.10172 34.0762 3.50998 32.5426C2.82459 31.8847 1.54849 30.6089 1.48086 29.5865C1.25089 26.1769 5.47598 28.8308 6.41388 29.6176C7.07222 30.1732 8.03268 29.2308 7.36983 28.6752C5.89533 27.4349 3.24845 25.8213 1.22383 26.7548C-0.408487 27.5061 -0.137937 29.3686 0.488837 30.7111C3.1267 36.4145 12.8034 37.0679 13.1506 43.9626C13.1912 44.8161 14.5484 44.8205 14.5033 43.9626Z" fill="#46A358"/>
<path d="M44.8365 45.2827C46.523 42.7756 48.746 40.7263 51.4695 39.3482C53.9496 38.0947 57.0248 37.8768 59.2208 36.1032C61.7414 34.0672 61.8722 29.0752 57.7012 29.2041C56.8309 29.2307 56.8309 30.5643 57.7012 30.5377C59.347 30.7599 60.0144 31.6579 59.7123 33.2271C59.3741 34.1295 58.8014 34.8407 57.9943 35.3564C57.0068 36.0454 55.8073 36.361 54.671 36.7166C53.2236 37.17 51.8122 37.6457 50.473 38.3569C47.6863 39.8417 45.4092 42.0199 43.6642 44.6115C43.1817 45.3272 44.3541 45.994 44.8365 45.2827Z" fill="#46A358"/>
<path d="M48.5115 33.5516C42.7803 34.6185 40.6655 40.2417 39.3083 45.1627C39.0783 45.994 40.386 46.3451 40.6114 45.5183C41.8469 41.0419 43.6281 35.8143 48.8722 34.8408C49.7245 34.6763 49.3637 33.3915 48.5115 33.5516Z" fill="#46A358"/>
<path d="M18.2911 13.2544C17.6192 10.5917 18.4579 7.6756 20.6313 5.88859C21.0687 5.51074 21.5647 5.2218 22.1103 5.02176C23.6119 5.33737 24.3108 6.12864 24.2071 7.39555C24.2342 8.13347 24.0899 8.8625 23.914 9.57375C23.5578 11.0095 22.931 12.3742 22.4666 13.779C21.2716 17.3974 19.5536 23.3141 22.7822 26.3947C23.0933 26.6926 23.5758 26.2214 23.2602 25.9235C20.4284 23.2252 21.8804 18.0376 22.8498 14.8058C23.6885 12.0053 25.9657 8.28461 24.4281 5.34182C23.2286 3.04804 20.478 4.91062 19.3101 6.25311C17.5831 8.24016 17.0015 10.9117 17.6372 13.4322C17.7455 13.8501 18.3948 13.6723 18.2911 13.2544Z" fill="#46A358"/>
<path d="M32.5851 24.052C32.9729 23.2029 33.7575 22.0027 34.8081 21.8604C36.4089 21.6426 37.2341 23.6252 36.3773 24.9366C35.5702 26.1724 34.0326 27.0348 32.7069 27.5638C30.5019 28.4395 29.0229 29.6486 27.4221 31.3778C27.129 31.6935 27.607 32.1691 27.9001 31.849C28.8696 30.7955 29.8616 29.702 31.1242 28.9729C32.1297 28.3906 33.2976 28.1639 34.3076 27.5949C35.5386 26.897 37.5317 25.39 37.676 23.8697C37.7932 22.6428 36.4811 21.2203 35.2546 21.1447C33.7756 21.0514 32.54 22.545 32.0034 23.7186C31.8231 24.1009 32.4093 24.4432 32.5851 24.052Z" fill="#46A358"/>
<path d="M7.29767 24.8256C7.44647 23.6565 7.89288 23.2253 8.63238 23.5409C8.89391 23.5454 9.11035 23.6387 9.29072 23.821C9.64695 24.0521 9.88142 24.3944 10.0934 24.7545C10.4722 25.3991 10.648 26.1503 10.9276 26.8349C11.2838 27.7151 11.7528 28.4308 12.5599 28.9553C12.9251 29.1953 13.2633 28.6175 12.9026 28.3774C10.9186 27.0794 11.4732 23.7098 8.99312 22.8919C7.50509 22.4029 6.00805 23.6743 6.71599 25.159C6.90086 25.5502 7.48254 25.2124 7.29767 24.8256Z" fill="#46A358"/>
<path d="M31.53 7.57342C31.1783 5.65304 33.2299 4.12386 34.7991 5.52413C35.6649 6.29761 35.9986 7.72011 36.0031 8.83144C36.0121 10.3383 35.3132 11.6853 35.6108 13.1967C35.6919 13.619 36.3458 13.4412 36.2646 13.0189C35.8903 11.1207 36.9635 9.30264 36.481 7.33337C36.1925 6.15536 35.6063 4.844 34.3707 4.39947C32.1432 3.60376 30.5064 5.72862 30.8761 7.74678C30.9573 8.16909 31.6066 7.99127 31.53 7.57342Z" fill="#46A358"/>
<path d="M31.1918 11.9697C32.292 14.2502 32.8331 16.2506 32.752 18.7799C32.7384 19.2111 33.4148 19.2067 33.4283 18.7799C33.514 16.1216 32.9278 14.019 31.778 11.6363C31.5886 11.2496 31.0069 11.5874 31.1918 11.9697Z" fill="#46A358"/>
<path d="M48.7324 10.0626C49.3862 8.59127 50.6217 7.6622 52.0512 6.96429C52.4615 6.75091 52.8853 6.57754 53.3272 6.43974C55.2346 7.07986 55.7171 7.96448 54.7747 9.10248C54.3238 9.80039 53.6699 10.4271 53.1063 11.0406C50.9599 13.3744 48.6422 15.5348 46.1937 17.553C45.8601 17.8286 46.338 18.2998 46.6717 18.0242C48.8857 16.2016 50.9915 14.2634 52.9575 12.183C54.1389 10.9339 56.407 9.08025 55.911 7.10654C54.9235 3.19467 48.9759 7.85779 48.1462 9.72926C47.9749 10.116 48.5611 10.4538 48.7324 10.0626Z" fill="#46A358"/>
<path d="M44.9132 19.9755C42.7533 21.5403 41.4411 23.8207 41.1931 26.4479C41.1525 26.8747 41.8289 26.8702 41.8695 26.4479C42.095 24.0741 43.3034 21.9626 45.2559 20.549C45.6031 20.3001 45.2649 19.7177 44.9132 19.9755Z" fill="#46A358"/>
<path d="M49.1924 31.098C49.6343 30.8357 50.0762 30.5601 50.5406 30.3334C50.8923 30.1422 51.2621 29.9955 51.6499 29.8933C52.3759 29.5954 52.6194 30.1511 52.3759 31.5603C51.8979 32.4893 49.3096 32.5248 48.507 32.476C46.5004 32.3603 44.6111 31.818 42.6315 32.4181C42.2167 32.5426 42.3926 33.1872 42.8119 33.0628C45.1882 32.3382 47.5014 33.3917 49.9003 33.1295C51.2035 32.9828 53.0477 32.3915 53.697 31.1469C54.0578 30.4534 53.9721 29.5377 53.183 29.1598C51.8889 28.5419 49.8688 29.9111 48.8497 30.5201C48.4799 30.7468 48.8181 31.3247 49.1924 31.098Z" fill="#46A358"/>
<path d="M39.1369 33.5783C35.6198 36.3922 34.3391 40.6597 33.9829 44.9627C33.9469 45.3895 34.6232 45.3895 34.6593 44.9627C35.002 40.8242 36.233 36.7523 39.6149 34.0495C39.9531 33.7784 39.4706 33.3116 39.1369 33.5783Z" fill="#46A358"/>
<path d="M23.9996 34.7117C22.9535 36.4988 22.9851 38.4458 23.215 40.4462C23.4089 42.1265 23.6299 43.7757 24.8068 45.0826C25.0954 45.4027 25.5733 44.9315 25.2847 44.6114C24.1304 43.3312 23.9861 41.5531 23.8328 39.9172C23.6705 38.2146 23.693 36.5654 24.5858 35.0451C24.8023 34.6762 24.2206 34.3428 23.9996 34.7117Z" fill="#46A358"/>
<path d="M5.34071 30.3198C3.38373 30.3465 4.1593 32.378 5.20543 33.107C6.51309 34.0183 8.00111 34.6273 9.38994 35.3963C11.0268 36.3032 11.6851 37.8324 12.9432 39.1082C13.2453 39.4149 13.7233 38.9437 13.4212 38.637C12.1721 37.3701 11.5679 35.8542 9.9581 34.9474C9.14645 34.4895 8.29421 34.1028 7.47805 33.6627C7.05419 33.436 6.63033 33.2092 6.2245 32.9559C6.06217 32.8581 5.89533 32.7558 5.733 32.658C4.92586 32.3557 4.79961 31.8001 5.34521 30.991C5.77358 30.9821 5.77359 30.3154 5.34071 30.3198Z" fill="#46A358"/>
<path d="M56.2357 33.3917C56.2582 34.2808 55.8434 34.7653 54.9822 34.8498C54.5673 35.0142 54.157 35.1743 53.7421 35.3387C53.1244 35.5832 52.5021 35.8277 51.8844 36.0722C50.4414 36.6412 48.994 37.2147 47.551 37.7837C47.1497 37.9392 47.3256 38.5883 47.7314 38.4282C49.3818 37.7748 51.0321 37.1258 52.6825 36.4723C53.9045 35.9878 55.4646 35.641 56.5513 34.8853C57.4938 34.2274 57.5208 32.8627 56.2312 32.7249C55.8028 32.676 55.8073 33.3473 56.2357 33.3917Z" fill="#46A358"/>
<path d="M45.9999 38.708C44.1872 40.3973 42.7578 42.3799 41.7477 44.6292C41.5719 45.0159 42.1535 45.3582 42.3339 44.967C43.3214 42.7711 44.7057 40.8329 46.4823 39.1837C46.7935 38.8859 46.3155 38.4147 45.9999 38.708Z" fill="#46A358"/>
<path d="M14.5485 41.6244C15.067 42.3801 15.4007 43.1935 15.5585 44.0915C15.6307 44.5138 16.2845 44.336 16.2124 43.9137C16.0455 42.9668 15.6803 42.0822 15.1347 41.2865C14.8912 40.9353 14.305 41.2687 14.5485 41.6244Z" fill="#46A358"/>
<path d="M11.1293 45.3569C23.7023 47.0205 36.3918 47.282 49.0231 46.1369C49.8795 46.0602 49.8885 44.7077 49.0231 44.7844C36.3918 45.9295 23.7023 45.668 11.1293 44.0044C10.2773 43.8917 10.2818 45.2487 11.1293 45.3569Z" fill="#727272"/>
<path d="M14.0304 91.0307C19.465 91.725 24.9354 92.0631 30.4147 91.9865C35.235 91.9189 40.9251 92.1308 45.4449 90.2237C46.2296 89.8901 45.8843 88.5827 45.0862 88.9208C40.4498 90.8775 34.5086 90.6115 29.5493 90.643C24.3569 90.6791 19.178 90.3365 14.0259 89.6782C13.174 89.57 13.1785 90.9225 14.0304 91.0307Z" fill="#727272"/>
<path d="M10.6047 44.3155C4.33164 50.1673 1.40811 58.8909 2.09864 67.3981C2.45287 71.7937 3.69043 76.0675 5.55127 80.0529C7.2462 83.6866 9.74375 88.8937 13.4923 90.7827C14.2636 91.1704 14.9451 90.0072 14.1694 89.615C10.6809 87.8568 8.30889 82.7939 6.71261 79.3721C4.85626 75.3823 3.64111 71.0498 3.39001 66.6452C2.94162 58.706 5.71269 50.7218 11.5597 45.2713C12.1965 44.6807 11.2414 43.7249 10.6047 44.3155Z" fill="#727272"/>
<path d="M48.5478 45.9522C55.1661 50.1223 55.7893 59.1164 55.6279 66.199C55.4486 74.0975 54.4755 86.6126 45.0862 88.9209C44.2477 89.1283 44.6019 90.4312 45.4449 90.2238C55.2468 87.8163 56.6547 75.3959 56.9507 67.0375C57.2242 59.2156 56.5337 49.3875 49.2248 44.7845C48.4895 44.3247 47.8169 45.4923 48.5478 45.9522Z" fill="#727272"/>
<path d="M15.5774 45.366C10.6406 50.7084 8.46138 59.6303 9.2954 66.785C9.77966 70.9462 11.089 75.0758 12.062 79.1378C13.0395 83.2088 14.0484 87.2483 16.2634 90.8414C16.7208 91.5807 17.8821 90.9 17.4248 90.1606C15.3442 86.7884 14.3757 83.0195 13.4565 79.2009C12.5687 75.5221 11.5329 71.8388 10.8468 68.1195C9.5465 61.0369 11.5822 51.6777 16.528 46.3218C17.1154 45.6816 16.1648 44.7259 15.5774 45.366Z" fill="#727272"/>
<path d="M22.2405 45.9295C18.5637 52.4395 16.6311 59.8331 16.7297 67.3259C16.7791 70.9235 17.2902 74.5257 18.2677 77.9881C19.4829 82.2845 21.3303 86.36 22.1374 90.7736C22.2943 91.6302 23.5902 91.265 23.4332 90.413C22.7292 86.5493 21.2361 82.9517 20.0478 79.2278C18.8955 75.6122 18.2049 71.8838 18.0884 68.0833C17.8552 60.5679 19.7116 53.1428 23.4018 46.6102C23.8323 45.8528 22.6709 45.1721 22.2405 45.9295Z" fill="#727272"/>
<path d="M26.2043 47.2234C27.4822 54.7343 25.9308 62.2586 26.0608 69.8011C26.1191 73.2454 26.8858 76.4508 27.3342 79.8411C27.8006 83.3621 27.0024 86.9822 26.5675 90.4762C26.4599 91.3373 27.8051 91.3282 27.9127 90.4762C28.3521 86.9507 29.1458 83.3034 28.6794 79.7509C28.2041 76.1172 27.4015 72.6728 27.397 68.976C27.388 61.5779 28.7512 54.2339 27.5001 46.8673C27.3522 46.0107 26.0563 46.3714 26.2043 47.2234Z" fill="#727272"/>
<path d="M31.2487 46.5968C33.6118 53.3818 33.8987 60.541 34.1364 67.6596C34.3965 75.3914 34.0108 83.0014 32.576 90.6114C32.4146 91.4635 33.7104 91.8287 33.8718 90.9721C35.3291 83.2448 35.7461 75.5086 35.4816 67.6596C35.2394 60.4238 34.9435 53.1293 32.5446 46.2361C32.2621 45.4246 30.9618 45.7762 31.2487 46.5968Z" fill="#727272"/>
<path d="M36.9075 46.6284C37.4052 48.1567 38.4813 49.1756 39.3064 50.519C40.248 52.0519 40.7637 53.7876 41.0417 55.5548C41.647 59.4139 41.36 63.4534 41.3511 67.3441C41.3421 71.5774 41.6649 76.0541 40.5753 80.1882C39.6158 83.8174 37.4142 86.9462 36.6788 90.652C36.5084 91.5041 37.8043 91.8648 37.9747 91.0127C38.7638 87.0454 41.2031 83.6867 42.064 79.7374C42.9473 75.698 42.6873 71.4511 42.6962 67.3441C42.7052 63.5481 42.9339 59.6664 42.4362 55.8929C42.2165 54.2249 41.8398 52.5748 41.1224 51.051C40.3242 49.3514 38.7862 48.0575 38.2078 46.2722C37.9343 45.4472 36.634 45.7988 36.9075 46.6284Z" fill="#727272"/>
<path d="M43.4495 46.4163C46.1219 48.941 47.4088 52.9714 48.3729 56.4518C49.3773 60.0765 49.041 63.9447 48.8168 67.655C48.3639 75.1839 47.0994 82.7038 43.5078 89.4121C43.0953 90.1785 44.2566 90.8638 44.6692 90.0929C48.4984 82.9382 49.7764 74.8954 50.2023 66.8706C50.4176 62.8311 50.5924 58.8863 49.3324 54.9957C48.2384 51.6189 47.0322 47.9492 44.4001 45.4561C43.7724 44.8655 42.8173 45.8212 43.4495 46.4163Z" fill="#727272"/>
<path d="M15.4697 49.7977C15.3307 50.1538 15.1783 50.5055 15.0124 50.8526C14.8016 51.2899 15.0482 51.8895 15.5953 51.8715C15.9854 51.858 16.2948 51.6822 16.5728 51.4162C16.6625 51.3305 16.7521 51.2403 16.8373 51.1547C16.9494 51.042 16.8015 51.2223 16.8867 51.1186C16.8687 51.1457 16.7746 51.1367 16.8598 51.1457C16.6445 50.8617 16.4293 50.5731 16.2096 50.2891C16.1513 50.5912 16.0885 50.8932 16.0302 51.1998C15.9585 51.5559 16.1334 51.9301 16.501 52.0338C16.8329 52.124 17.2588 51.9211 17.3306 51.5604C17.3889 51.2584 17.4516 50.9563 17.5099 50.6498C17.5996 50.1899 17.3171 49.8383 16.8598 49.7932C16.4876 49.7571 16.1513 49.9555 15.8867 50.1989C15.7926 50.2846 15.7119 50.3748 15.6177 50.4604C15.5863 50.4875 15.5594 50.5145 15.528 50.5416C15.5415 50.528 15.5549 50.519 15.5684 50.5055C15.5011 50.5416 15.5011 50.5461 15.5774 50.5145C15.5011 50.5325 15.5056 50.5371 15.5908 50.5145C15.7836 50.8526 15.9764 51.1908 16.1737 51.5334C16.3889 51.0826 16.5862 50.6227 16.7656 50.1584C16.8956 49.8157 16.6221 49.4145 16.2948 49.3243C15.9181 49.2206 15.6043 49.4551 15.4697 49.7977Z" fill="#727272"/>
<path d="M12.1382 57.8902C12.0754 58.2689 12.0127 58.6476 11.9499 59.0217C11.9006 59.3238 11.9813 59.6213 12.2593 59.7836C12.5059 59.9279 12.8781 59.9009 13.0754 59.68C13.2054 59.5312 13.3354 59.3824 13.4655 59.2336C13.5506 59.1345 13.6717 58.9496 13.7748 58.8955C13.6627 58.9271 13.5506 58.9586 13.4341 58.9857C13.4565 58.9812 13.4834 58.9812 13.5058 58.9767C13.3937 58.9451 13.2816 58.9135 13.165 58.8865C13.183 58.9 13.2009 58.9135 13.2188 58.9271C13.1067 58.7332 12.9946 58.5394 12.887 58.341C12.9229 58.7287 12.8153 59.1615 12.7704 59.5537C12.7077 60.1173 13.3758 60.3246 13.7838 60.1398C14.3129 59.8918 14.6672 59.4365 14.8555 58.891C14.4788 58.9902 14.1067 59.0894 13.73 59.1886C13.7166 59.1029 13.7031 59.0172 13.6897 58.9316C13.4699 59.7746 14.7703 60.1353 14.9855 59.2922C15.0842 58.909 14.9945 58.4898 14.6806 58.2328C14.277 57.9037 13.7345 58.0209 13.5551 58.5303C13.4744 58.7558 13.3085 58.873 13.1023 58.9722C13.4386 59.166 13.7748 59.3599 14.1156 59.5582C14.1829 58.9541 14.5057 57.8811 13.6807 57.6512C12.9857 57.4574 12.4969 58.2869 12.1203 58.7242C12.4969 58.9451 12.8691 59.1615 13.2457 59.3824C13.3085 59.0037 13.3713 58.625 13.4341 58.2508C13.4924 57.8902 13.3399 57.5205 12.9633 57.4168C12.6449 57.3311 12.1965 57.5295 12.1382 57.8902Z" fill="#727272"/>
<path d="M11.5597 66.0367C11.6046 66.5687 11.6539 67.1007 11.6987 67.6281C11.766 68.381 12.7749 68.5568 13.0215 67.8085C13.156 67.3937 13.3443 67.0195 13.582 66.6498C13.174 66.5957 12.7614 66.5416 12.3534 66.4875C12.5103 66.8798 12.6179 67.281 12.6762 67.7048C12.7435 68.1827 13.3219 68.2638 13.6627 68.1105C13.8331 68.0339 13.9721 67.8851 14.0618 67.7228C14.1021 67.6507 14.1335 67.565 14.1604 67.4884C14.1739 67.4478 14.1828 67.4072 14.1963 67.3666C14.2187 67.299 14.2097 67.3035 14.1784 67.3802C14.0797 67.4388 13.9811 67.4974 13.8824 67.556C13.9048 67.547 13.9317 67.5425 13.9542 67.5335C13.8331 67.5335 13.7165 67.5335 13.5954 67.5335C13.5865 67.5289 13.5775 67.5244 13.573 67.5154C13.4923 67.4343 13.4116 67.3531 13.3309 67.272C13.3443 67.29 13.3533 67.308 13.3668 67.3261C13.3443 67.1503 13.3219 66.9789 13.2995 66.8031C13.295 66.8257 13.295 66.8482 13.2905 66.8662C13.2412 67.2269 13.3757 67.5921 13.7614 67.7003C14.0752 67.7859 14.5416 67.5921 14.5909 67.2269C14.6312 66.9339 14.6088 66.6679 14.3936 66.447C14.2142 66.2666 13.9407 66.181 13.6896 66.208C13.4295 66.2396 13.2009 66.3929 13.0619 66.6138C13.0036 66.7084 12.9229 66.8392 12.9184 66.9474C12.9139 67.1052 12.8466 66.9925 12.9901 66.9293C13.3174 67.0646 13.6493 67.1998 13.9766 67.3351C13.9183 66.9158 13.8107 66.5146 13.6537 66.1178C13.4385 65.5859 12.757 65.4326 12.4251 65.9555C12.1292 66.4199 11.9005 66.9158 11.7301 67.4343C12.1696 67.4929 12.609 67.556 13.0529 67.6146C13.0081 67.0826 12.9587 66.5506 12.9139 66.0232C12.8825 65.658 12.6269 65.3469 12.2413 65.3469C11.896 65.3604 11.5283 65.6715 11.5597 66.0367Z" fill="#727272"/>
<path d="M13.1784 75.5762C13.2233 76.3561 13.6134 77.0369 14.2905 77.4336C14.7389 77.6906 15.2949 77.3615 15.3038 76.8475C15.3083 76.4508 15.398 76.0856 15.5505 75.7204C15.1738 75.8196 14.8016 75.9188 14.425 76.018C14.6088 76.2434 14.8061 76.4418 15.0258 76.6266C15.3845 76.9287 16.0392 76.8701 16.1513 76.3291C16.1782 76.2073 16.2096 76.1036 16.2499 75.9909C15.8733 76.0901 15.5011 76.1893 15.1245 76.2885C15.1648 76.2659 15.1873 76.293 15.1828 76.3651C15.3263 76.7033 15.8195 76.7754 16.102 76.6086C16.4472 76.4057 16.4876 76.0225 16.3441 75.6844C16.2858 75.5491 16.1917 75.4274 16.0751 75.3327C15.6581 75.0036 15.1469 75.1253 14.9496 75.6303C14.9048 75.743 14.8734 75.8512 14.851 75.9684C15.2276 75.8692 15.5998 75.77 15.9764 75.6708C15.7567 75.486 15.5594 75.2831 15.3756 75.0622C15.0169 74.6204 14.425 74.9495 14.2501 75.3598C14.0528 75.8331 13.9631 76.3336 13.9542 76.8475C14.2905 76.6537 14.6268 76.4598 14.9675 76.2614C14.7075 76.1127 14.5371 75.8782 14.5191 75.5717C14.4743 74.7151 13.1291 74.7061 13.1784 75.5762Z" fill="#727272"/>
<path d="M15.9496 84.8498C16.1065 85.2555 16.2948 85.6297 16.5504 85.9859C16.9495 86.5359 17.7431 86.333 17.8059 85.6433C17.8104 85.6027 17.8821 85.1023 17.8552 85.0797C17.6624 85.2014 17.4741 85.3232 17.2813 85.4449C17.3261 85.508 17.3665 85.5666 17.4158 85.6252C17.5862 85.8416 17.7969 86.0265 18.0705 86.1031C18.2812 86.1572 18.5278 86.1302 18.7117 86.0129C18.8327 85.9318 18.9179 85.8371 18.9807 85.7064C19.0031 85.6523 19.0255 85.5982 19.048 85.5441C19.1511 85.2195 18.9538 85.1654 18.4606 85.3818C18.7296 86.2023 20.0299 85.8506 19.7564 85.0211C19.5681 84.4531 19.0211 84.0834 18.4247 84.3088C18.1826 84.4035 17.9718 84.5838 17.8552 84.8182C17.8194 84.8904 17.6893 85.2014 17.7342 85.2916C17.9942 85.1428 18.2498 84.9896 18.5099 84.8408C18.474 84.7957 18.4381 84.7551 18.4068 84.71C18.1915 84.2727 17.5683 84.0248 17.1199 84.1871C16.4876 84.4125 16.5145 85.0887 16.4652 85.6478C16.8822 85.5351 17.2992 85.4224 17.7207 85.3051C17.5369 85.0527 17.371 84.7867 17.2544 84.4936C16.9315 83.6912 15.6312 84.0383 15.9496 84.8498Z" fill="#727272"/>
<path d="M23.1373 49.9824C22.6531 50.3476 22.2495 50.7804 21.985 51.3349C21.6397 52.0563 22.4423 52.6243 23.0432 52.1554C23.1867 52.0427 23.3301 51.93 23.4736 51.8173C23.5364 51.7677 23.5992 51.7181 23.6664 51.6685C23.6978 51.6415 23.7292 51.619 23.7606 51.5919C23.8727 51.5108 23.8144 51.5243 23.5857 51.628C23.4736 51.5964 23.3615 51.5649 23.2449 51.5378C23.2584 51.5468 23.2718 51.5558 23.2853 51.5649C23.2046 51.4837 23.1239 51.4026 23.0432 51.3214C23.0297 51.2628 23.0118 51.2087 22.9983 51.1501C23.0028 51.087 23.0028 51.078 22.9894 51.1321C22.958 51.1546 22.949 51.3079 22.949 51.3304C22.9176 51.5378 22.9356 51.7407 23.0432 51.93C23.1418 52.1013 23.3167 52.2546 23.5095 52.3042C23.5902 52.3268 23.6933 52.3358 23.7785 52.3358C23.8592 52.3358 23.931 52.3223 24.0027 52.2952C24.0969 52.2682 24.0655 52.2591 23.9041 52.2682C23.8054 52.2095 23.7068 52.1509 23.6081 52.0923C23.6216 52.1059 23.635 52.1194 23.6485 52.1329C23.5902 52.0337 23.5319 51.9345 23.4736 51.8354C23.4781 51.8489 23.4826 51.8669 23.4871 51.8804C23.5095 51.7046 23.5319 51.5333 23.5543 51.3575C23.5454 51.371 23.5409 51.3845 23.5319 51.3981C23.1239 52.1645 24.2852 52.8497 24.6933 52.0788C24.8681 51.7542 24.8278 51.389 24.5543 51.1321C24.4108 50.9968 24.218 50.9157 24.0207 50.9112C23.9086 50.9066 23.7785 50.9788 23.6799 50.9698C23.792 51.0013 23.9041 51.0329 24.0207 51.0599C24.0027 51.0464 23.9848 51.0329 23.9713 51.0239C24.0521 51.105 24.1328 51.1862 24.2135 51.2673C24.2045 51.2493 24.1955 51.2312 24.1866 51.2132C24.218 51.3259 24.2493 51.4386 24.2762 51.5558C24.2673 51.4702 24.2807 51.5153 24.3121 51.389C24.348 51.2312 24.3525 51.0599 24.3166 50.8976C24.2404 50.573 23.9982 50.3386 23.6754 50.28C23.3391 50.2169 23.1104 50.3927 22.8548 50.5911C22.5993 50.7894 22.3437 50.9923 22.0881 51.1907C22.4423 51.4657 22.7921 51.7362 23.1463 52.0112C23.3077 51.6776 23.514 51.371 23.8144 51.1456C24.1059 50.9292 24.2538 50.5595 24.0565 50.2214C23.8906 49.9374 23.4333 49.766 23.1373 49.9824Z" fill="#727272"/>
<path d="M20.5052 57.5925C20.3931 58.1335 20.2855 58.6745 20.1734 59.22C20.0344 59.9097 20.7788 60.3065 21.2989 59.8782C21.4513 59.7519 21.5859 59.5941 21.6845 59.4228C21.7518 59.3056 21.8325 59.0667 21.8684 59.0081C21.7876 59.0892 21.7069 59.1704 21.6262 59.2515C21.6486 59.238 21.6666 59.2245 21.689 59.2064C21.5769 59.238 21.4648 59.2696 21.3482 59.2966C21.3751 59.2921 21.402 59.2921 21.4289 59.2876C21.3168 59.256 21.2047 59.2245 21.0881 59.1974C20.9805 59.1478 20.976 58.972 21.0074 59.2019C21.0164 59.2605 21.0299 59.3101 21.0478 59.3642C21.1106 59.5671 21.2227 59.7474 21.3931 59.8737C21.55 59.9909 21.7338 60.054 21.9311 60.0495C22.0522 60.045 22.1643 60.0134 22.2719 59.9593C22.3302 59.9368 22.3795 59.9052 22.4244 59.8646C22.5409 59.7835 22.5096 59.788 22.3347 59.8692C22.2226 59.8376 22.1105 59.806 21.9939 59.779C22.0118 59.788 22.0163 59.797 22.0298 59.8331C22.3167 60.6491 23.6171 60.2974 23.3256 59.4724C23.2001 59.1163 23.0162 58.7872 22.671 58.6113C22.4916 58.5167 22.2674 58.4896 22.0701 58.5347C21.8728 58.5798 21.7563 58.7105 21.5859 58.7917C21.698 58.7601 21.8101 58.7286 21.9266 58.7015C21.9042 58.7015 21.8773 58.7015 21.8549 58.7015C21.967 58.7331 22.0791 58.7646 22.1957 58.7917C22.3167 59.0036 22.3526 59.0351 22.3033 58.8863C22.2943 58.8277 22.2854 58.7691 22.2764 58.7105C22.245 58.5933 22.1957 58.4716 22.1329 58.3724C21.967 58.1109 21.6935 57.9396 21.3841 57.9441C21.0792 57.9486 20.8012 58.1244 20.6577 58.3904C20.5366 58.6158 20.5456 58.7511 20.3393 58.9224C20.716 59.1433 21.0881 59.3597 21.4648 59.5806C21.5769 59.0396 21.6845 58.4986 21.7966 57.9576C21.976 57.1011 20.6801 56.7404 20.5052 57.5925Z" fill="#727272"/>
<path d="M19.9851 64.5039C19.8461 65.2298 19.7564 65.9601 19.734 66.695C19.716 67.2089 20.3169 67.5335 20.7473 67.281C20.9446 67.1638 21.0881 67.006 21.1957 66.8032C21.2361 66.7265 21.3527 66.5507 21.3303 66.4831C21.3258 66.4741 21.2854 66.5327 21.3034 66.5236C21.1913 66.5552 21.0792 66.5868 20.9626 66.6138C20.9536 66.6183 20.9402 66.6183 20.9312 66.6228C20.8505 66.5417 20.7698 66.4605 20.6891 66.3794C20.7653 66.4786 20.7563 66.4695 20.7653 66.5732C20.8146 67.1278 21.4782 67.4974 21.9132 67.0511C21.9625 66.997 22.0118 66.9474 22.0656 66.8978C21.9715 66.9429 21.8728 66.9339 21.7787 66.8798C21.7204 66.7806 21.6621 66.6814 21.6038 66.5823C21.6127 66.6093 21.6217 66.6364 21.6352 66.6634C21.7607 67.006 22.0925 67.2405 22.4647 67.1368C22.792 67.0466 23.0611 66.6499 22.9355 66.3027C22.5858 65.347 21.5679 65.4687 20.9626 66.0954C21.3437 66.2531 21.7293 66.4154 22.1105 66.5732C22.0567 65.9195 21.7338 65.2117 20.9626 65.2613C20.6487 65.2793 20.3707 65.4642 20.2048 65.7302C20.1465 65.8249 20.1061 65.9331 20.0613 66.0367C20.012 66.1495 19.9268 66.19 20.0658 66.1089C20.4021 66.3027 20.7384 66.4966 21.0792 66.695C21.0971 66.0773 21.1644 65.4687 21.2809 64.8601C21.4468 64.0125 20.151 63.6518 19.9851 64.5039Z" fill="#727272"/>
<path d="M20.6532 72.2265C20.8056 72.8306 20.9895 73.4212 21.2047 74.0028C21.3796 74.4761 21.9401 74.6745 22.3302 74.3003C22.5006 74.1335 22.6171 73.9396 22.6754 73.7052C22.6979 73.6105 22.7158 73.4978 22.7203 73.4031C22.7337 73.1146 22.7023 73.3536 22.7292 73.34C22.6171 73.3716 22.505 73.4031 22.3885 73.4302C22.4198 73.4302 22.4468 73.4257 22.4781 73.4257C22.366 73.3941 22.2539 73.3626 22.1374 73.3355C22.0477 73.2949 22.0746 73.2544 22.1463 73.3806C22.1822 73.4437 22.2136 73.4978 22.2584 73.5564C22.3974 73.7368 22.5678 73.8585 22.7965 73.89C22.9983 73.9171 23.1911 73.8675 23.3615 73.7503C23.4556 73.6827 23.5408 73.606 23.6036 73.5068C23.6305 73.4527 23.6574 73.3986 23.6798 73.3445C23.7695 73.1687 23.6933 73.2138 23.4512 73.4843C23.3301 73.4843 23.2135 73.4843 23.0924 73.4843C23.0386 73.4392 22.9893 73.3896 22.9355 73.3445C22.9041 73.2318 22.8727 73.1191 22.8458 73.0019C22.8458 73.029 22.8458 73.056 22.8458 73.0831C22.8324 73.9532 24.1776 73.9532 24.191 73.0831C24.2 72.6277 23.8861 72.2716 23.4512 72.1814C23.218 72.1318 22.9848 72.1814 22.792 72.3211C22.6979 72.3888 22.6216 72.4654 22.5589 72.5601C22.5454 72.5871 22.5319 72.6187 22.514 72.6457C22.3974 72.8712 22.4288 72.8667 22.6127 72.6322C22.7248 72.6007 22.8369 72.5691 22.9534 72.5421C22.931 72.5466 22.9086 72.5466 22.8862 72.5511C22.9983 72.5826 23.1104 72.6142 23.227 72.6412C23.4198 72.7359 23.3211 72.7044 23.2494 72.5781C23.1956 72.4789 23.1238 72.3843 23.0431 72.3121C22.7875 72.0822 22.4512 72.0236 22.1329 72.1363C21.8773 72.2265 21.6845 72.4248 21.5544 72.6548C21.4827 72.7855 21.4468 72.9162 21.4199 73.0605C21.4065 73.1236 21.4199 73.304 21.3796 73.3445C21.7562 73.4437 22.1284 73.5429 22.505 73.6421C22.2898 73.0605 22.106 72.4654 21.9535 71.8658C21.7338 71.0273 20.4379 71.3834 20.6532 72.2265Z" fill="#727272"/>
<path d="M21.3302 78.6869C21.5724 79.4037 21.8818 80.0935 22.2629 80.7427C22.5364 81.207 23.1418 81.1529 23.4242 80.7427C23.5005 80.63 23.5543 80.5128 23.5901 80.382C23.5946 80.3414 23.5991 80.3054 23.6081 80.2648C23.6798 80.0033 23.617 80.0123 23.4108 80.2964C23.2897 80.2964 23.1731 80.2964 23.0521 80.2964C22.8637 80.2378 22.9489 80.2513 23.0476 80.3595C23.1193 80.4361 23.209 80.5173 23.3032 80.5714C23.496 80.6796 23.7247 80.7202 23.9444 80.7021C24.4466 80.6661 24.7918 80.3324 24.9577 79.8771C25.2582 79.0611 23.9578 78.7049 23.6619 79.5164C23.7471 79.291 23.9578 79.4172 23.922 79.309C23.8951 79.2324 23.7381 79.1287 23.6664 79.0881C23.4467 78.9619 23.1821 78.9349 22.9445 79.016C22.7247 79.0881 22.5499 79.2549 22.4378 79.4578C22.3391 79.6382 22.366 79.9086 22.2584 80.0619C22.644 80.0619 23.0341 80.0619 23.4198 80.0619C23.0924 79.5074 22.8279 78.9394 22.6216 78.3307C22.3526 77.5102 21.0522 77.8619 21.3302 78.6869Z" fill="#727272"/>
<path d="M23.1014 86.4008C23.1059 86.775 23.1597 87.1492 23.2763 87.5008C23.3615 87.7578 23.5633 87.9471 23.8368 87.9832C24.0834 88.0148 24.3928 87.9021 24.5049 87.6586C24.5811 87.4963 24.6574 87.334 24.7336 87.1762C24.7695 87.0996 24.8053 87.0274 24.8367 86.9508C24.8546 86.9147 24.8726 86.8742 24.8905 86.8381C24.9264 86.7705 24.9264 86.7705 24.8905 86.8381C24.7919 86.8967 24.6932 86.9553 24.5946 87.0139C24.608 87.0094 24.626 87.0004 24.6394 86.9959C24.5184 86.9959 24.4018 86.9959 24.2807 86.9959C24.2583 86.9869 24.2314 86.9733 24.209 86.9643C24.1282 86.8832 24.0475 86.802 23.9668 86.7209C23.8996 86.6082 23.9623 86.7028 23.9892 86.7795C24.0117 86.8516 24.0386 86.9192 24.061 86.9914C24.1103 87.1311 24.1596 87.2754 24.2045 87.4152C24.3211 87.7623 24.6663 87.9877 25.034 87.8885C25.3658 87.7984 25.6214 87.4016 25.5048 87.0545C25.312 86.4955 25.1506 85.5758 24.3704 85.6795C23.765 85.7606 23.5633 86.5 23.3391 86.9779C23.7471 87.032 24.1596 87.0861 24.5677 87.1402C24.4825 86.8742 24.4421 86.6578 24.4376 86.3963C24.4332 86.0446 24.1327 85.702 23.7651 85.72C23.4108 85.7381 23.0969 86.0221 23.1014 86.4008Z" fill="#727272"/>
<path d="M29.2803 87.2211C29.2444 87.5277 29.2085 87.8388 29.1727 88.1453C29.1368 88.4339 29.4058 88.7269 29.6659 88.799C29.9708 88.8847 30.2533 88.7359 30.4237 88.488C30.5448 88.3121 30.6658 88.1408 30.7869 87.965C30.8407 87.8838 30.899 87.8072 30.9528 87.7261C30.9752 87.6945 30.9976 87.6629 31.02 87.6314C31.1187 87.4961 31.1052 87.5051 30.9842 87.6584C30.8721 87.69 30.76 87.7215 30.6434 87.7486C30.6658 87.7486 30.6838 87.7486 30.7062 87.7486C30.5941 87.717 30.482 87.6855 30.3654 87.6584C30.2309 87.424 30.186 87.3789 30.2309 87.5232C30.2443 87.5773 30.2533 87.6359 30.2667 87.69C30.2892 87.8027 30.3116 87.9109 30.3385 88.0236C30.3878 88.258 30.4102 88.533 30.5313 88.7449C30.6479 88.9433 30.8407 89.1146 31.0649 89.1777C31.4102 89.2724 31.6926 89.0966 31.8944 88.8261C32.1141 88.533 31.9393 88.0687 31.6523 87.9019C31.307 87.699 30.9528 87.8523 30.7331 88.1453C30.7241 88.1589 30.7151 88.1724 30.7062 88.1814C30.899 88.0687 31.0918 87.956 31.2891 87.8478C31.2756 87.8478 31.2622 87.8523 31.2487 87.8523C31.3608 87.8838 31.4729 87.9154 31.5895 87.9425C31.7061 88.0011 31.7778 88.3302 31.7106 87.9966C31.6926 87.9019 31.6702 87.8117 31.6523 87.717C31.6164 87.5502 31.585 87.3834 31.5492 87.2166C31.4684 86.865 31.2577 86.5223 30.89 86.4186C30.482 86.3059 30.1591 86.5404 29.9305 86.8469C29.7018 87.158 29.4865 87.4781 29.2668 87.7937C29.6838 87.9064 30.1008 88.0191 30.5223 88.1363C30.5582 87.8297 30.5941 87.5187 30.6299 87.2121C30.6703 86.8469 30.2892 86.5359 29.9574 86.5359C29.5583 86.5449 29.3251 86.8605 29.2803 87.2211Z" fill="#727272"/>
<path d="M29.926 74.8729C29.76 75.5942 29.6793 76.3336 29.6928 77.073C29.7018 77.7086 30.6344 78.0377 30.9483 77.4156C31.0828 77.1451 31.2173 76.8791 31.3518 76.6086C31.4505 76.4102 31.5222 76.1623 31.7016 76.0225C31.6029 76.0811 31.5043 76.1397 31.4057 76.1984C31.4057 76.1938 31.4057 76.1893 31.4101 76.1848C31.1949 76.018 30.9797 75.8557 30.76 75.6889C30.8452 76.009 30.9304 76.3291 31.0156 76.6492C31.1232 77.0504 31.6388 77.2939 32.002 77.0549C32.0648 77.0144 32.1276 76.9693 32.1903 76.9287C32.9078 76.4508 32.2352 75.2787 31.5133 75.761C31.4505 75.8016 31.3877 75.8467 31.3249 75.8873C31.6523 76.0225 31.9841 76.1578 32.3114 76.293C32.2262 75.9729 32.141 75.6528 32.0558 75.3328C31.9796 75.0487 31.7016 74.8323 31.4057 74.8368C30.4595 74.8549 30.1367 76.0361 29.787 76.7394C30.204 76.8521 30.621 76.9648 31.0425 77.082C31.0335 76.4553 31.0873 75.8512 31.2263 75.2381C31.4146 74.386 30.1188 74.0253 29.926 74.8729Z" fill="#727272"/>
<path d="M28.6436 64.7563C28.675 65.2883 28.7019 65.8157 28.7333 66.3477C28.7691 67.015 29.6211 67.2719 29.9888 66.6904C30.2488 66.2756 30.5089 65.8653 30.769 65.4506C30.3834 65.4506 29.9933 65.4506 29.6076 65.4506C29.7018 65.6129 29.7601 65.7616 29.7691 65.951C29.8005 66.5461 30.4775 66.8301 30.917 66.4289C31.2577 66.1223 31.4774 65.7526 31.6434 65.3243C31.316 65.4596 30.9842 65.5948 30.6569 65.7301C30.6569 65.7391 30.6569 65.7481 30.6524 65.7526C30.5941 65.6534 30.5358 65.5543 30.4775 65.4551C30.491 65.4821 30.4999 65.5137 30.5134 65.5407C30.6524 65.8789 30.9573 66.1178 31.3429 66.0141C31.6568 65.9284 31.9527 65.5227 31.8137 65.1801C31.6972 64.9051 31.5761 64.7383 31.334 64.5579C30.9528 64.2739 30.4865 64.5985 30.3475 64.9637C30.2668 65.1711 30.1278 65.3243 29.9664 65.4731C30.3475 65.6309 30.7331 65.7932 31.1142 65.951C31.0918 65.5272 30.9842 65.135 30.769 64.7698C30.5044 64.3235 29.8767 64.3415 29.6076 64.7698C29.3476 65.1846 29.0875 65.5948 28.8274 66.0096C29.2444 66.1223 29.6615 66.235 30.0829 66.3522C30.0516 65.8202 30.0247 65.2928 29.9933 64.7608C29.9395 63.8907 28.5943 63.8862 28.6436 64.7563Z" fill="#727272"/>
<path d="M29.0068 55.8162C28.9664 56.1588 28.9485 56.5014 28.9575 56.8441C28.9709 57.3129 29.5359 57.7457 29.9708 57.4302C30.195 57.2679 30.334 57.083 30.4103 56.817C30.4282 56.7539 30.4461 56.6818 30.4551 56.6187C30.4641 56.56 30.4999 56.5555 30.4506 56.6006C30.2175 56.817 29.9708 57.1281 29.5987 56.6773C29.639 56.7269 29.6256 56.7223 29.5987 56.6637C29.6301 56.7314 29.6525 56.808 29.6839 56.8756C29.7377 56.9928 29.8184 57.0965 29.9081 57.1867C30.1861 57.4617 30.5986 57.5158 30.9349 57.322C31.2532 57.1416 31.3564 56.7088 31.177 56.3977C30.9887 56.0777 30.5762 55.974 30.2578 56.1543C30.2444 56.1633 30.2264 56.1723 30.213 56.1813C30.3251 56.1498 30.4372 56.1182 30.5537 56.0912C30.5896 56.0867 30.9125 56.267 30.8856 56.276C30.9035 56.3121 30.9035 56.3121 30.89 56.2805C30.8766 56.2445 30.8631 56.2084 30.8452 56.1723C30.7914 56.0416 30.7286 55.9199 30.63 55.8117C30.4103 55.5817 30.0695 55.469 29.7601 55.5682C29.4686 55.6584 29.2758 55.8928 29.1817 56.1768C29.1592 56.24 29.1503 56.3031 29.1323 56.3707C29.1234 56.4023 29.1144 56.4293 29.1099 56.4609C29.092 56.5195 29.092 56.5195 29.1144 56.4609C29.1413 56.3752 29.1996 56.3076 29.2893 56.2625C29.6256 56.4564 29.9619 56.6502 30.3026 56.8486C30.2937 56.5059 30.3116 56.1633 30.352 55.8207C30.3968 55.469 30.0112 55.1309 29.6794 55.1444C29.2803 55.1625 29.0561 55.442 29.0068 55.8162Z" fill="#727272"/>
<path d="M28.5943 48.8823C28.4687 49.3782 28.5315 49.8877 28.796 50.325C29.1099 50.8569 29.8318 50.6946 30.0246 50.1627C30.0964 49.9643 29.9888 50.2844 30.056 50.0815C30.0829 50.0049 30.1054 50.0409 30.0381 50.0725C29.8318 50.1807 29.5538 50.1086 29.4911 49.8381C29.5763 50.1942 29.9753 50.4061 30.3206 50.3114C30.6793 50.2123 30.8766 49.8381 30.7914 49.4774C30.6703 48.9635 30.1143 48.6884 29.6166 48.8057C29.1279 48.9274 28.8902 49.3557 28.7288 49.7975C29.1368 49.7434 29.5493 49.6893 29.9574 49.6352C29.8901 49.518 29.8812 49.527 29.8677 49.3872C29.8767 49.4594 29.8722 49.3692 29.8722 49.3467C29.8812 49.1483 29.8453 49.4278 29.8901 49.234C29.9753 48.8913 29.778 48.4856 29.4193 48.3999C29.0741 48.3278 28.6884 48.5126 28.5943 48.8823Z" fill="#727272"/>
<path d="M9.36709 47.2865C9.1698 47.548 8.99044 47.823 8.8335 48.1116C8.56895 48.5849 9.01734 49.3243 9.59129 49.1034C9.79755 49.0267 9.99933 48.9456 10.2056 48.869C9.93207 48.7112 9.65406 48.5534 9.37606 48.3956C9.41193 48.4993 9.42987 48.5669 9.42538 48.6706C9.4209 49.0132 9.73926 49.3784 10.098 49.3468C10.4343 49.3198 10.7212 49.2386 11.0217 49.0944C11.349 48.9366 11.4342 48.4632 11.2638 48.1702C11.0665 47.832 10.6719 47.7689 10.3446 47.9267C10.2773 47.9583 10.1518 47.9898 10.098 47.9943C10.3222 48.2198 10.5464 48.4452 10.7706 48.6706C10.7751 48.4542 10.7437 48.2378 10.6719 48.0349C10.5598 47.7148 10.2056 47.4263 9.84239 47.5615C9.63613 47.6382 9.43435 47.7193 9.22809 47.796C9.47919 48.1251 9.73477 48.4587 9.98588 48.7878C10.1473 48.4993 10.3222 48.2243 10.5195 47.9628C10.7392 47.6697 10.5643 47.2054 10.2773 47.0386C9.94104 46.8447 9.5868 46.9935 9.36709 47.2865Z" fill="#727272"/>
<path d="M5.56029 54.8786C5.30471 55.4421 5.08499 56.0192 4.90564 56.6143C4.79354 56.984 5.04015 57.3266 5.37645 57.4483C5.66342 57.552 5.97281 57.4889 6.22391 57.3266C6.33153 57.2544 6.40327 57.1823 6.48398 57.0876C6.79338 56.718 6.3674 57.1958 6.1163 56.8848C6.05801 56.7856 5.99972 56.6864 5.94143 56.5872C5.90556 56.461 5.93246 56.7225 5.93246 56.718C5.94591 56.8217 5.97281 56.9299 6.02662 57.0245C6.12975 57.2003 6.31808 57.3446 6.51089 57.3987C6.87409 57.4979 7.34042 57.3581 7.49735 56.9885C7.64084 56.6548 7.596 56.2626 7.25522 56.0643C6.97273 55.8974 6.4795 55.9696 6.33601 56.3077C6.34947 56.2897 6.36292 56.2716 6.38085 56.2581C6.4795 56.1995 6.57815 56.1409 6.67679 56.0823C6.81131 56.1229 6.94583 56.1634 7.08035 56.204C7.13864 56.3032 7.19693 56.4024 7.25522 56.5016C7.29109 56.6278 7.26419 56.3167 7.25522 56.2852C7.21935 56.1499 7.15657 56.0282 7.0669 55.929C6.90099 55.7532 6.68576 55.6495 6.44363 55.636C6.22391 55.6269 6.02214 55.6901 5.84278 55.8163C5.75759 55.8749 5.68584 55.9425 5.61858 56.0237C5.34058 56.3483 5.53339 56.0733 5.73965 56.1454C5.89659 56.4249 6.05353 56.6999 6.21046 56.9794C6.35395 56.4971 6.52434 56.0282 6.7306 55.5683C6.87857 55.2347 6.82476 54.8425 6.48847 54.6441C6.19253 54.4683 5.70826 54.545 5.56029 54.8786Z" fill="#727272"/>
<path d="M4.07161 62.8539C3.92812 63.6293 3.92812 64.3822 4.08057 65.1576C4.1568 65.5408 4.56932 65.6851 4.9101 65.631C5.1074 65.5994 5.29124 65.4867 5.43024 65.3379C5.48853 65.2748 5.54234 65.1982 5.59166 65.126C5.61857 65.0855 5.64099 65.0449 5.66341 64.9998C5.70376 64.9367 5.69031 64.9412 5.61408 65.0043C5.49302 65.0043 5.37643 65.0043 5.25537 65.0043C5.28675 65.0133 5.31814 65.0223 5.34953 65.0314C5.25088 64.9728 5.15224 64.9141 5.05359 64.8555C5.00427 64.7518 4.99978 64.7564 5.04462 64.8691C5.06704 64.9232 5.08946 64.9773 5.11188 65.0314C5.18362 65.1666 5.28227 65.2748 5.40782 65.356C5.70824 65.5588 5.98176 65.5453 6.30461 65.3965C6.63642 65.2478 6.71713 64.7609 6.54674 64.4723C6.34945 64.1297 5.95935 64.0801 5.62753 64.2289C5.60511 64.2379 5.57821 64.2514 5.55579 64.2604C5.73066 64.2379 5.90105 64.2154 6.07593 64.1928C6.04902 64.1838 6.02212 64.1793 5.99522 64.1703C6.09386 64.2289 6.19251 64.2875 6.29116 64.3461C6.31806 64.4363 6.31806 64.4453 6.29564 64.3777C6.27322 64.3055 6.24632 64.2379 6.21493 64.1748C6.17457 64.0981 6.12973 64.0215 6.06696 63.9584C5.87863 63.7555 5.61857 63.6608 5.34505 63.6879C5.1074 63.7104 4.89665 63.8276 4.73075 63.999C4.65004 64.0801 4.58278 64.1748 4.52448 64.274C4.51103 64.301 4.4931 64.3281 4.47965 64.3551C4.39445 64.4814 4.41687 64.4678 4.55139 64.3191C4.82491 64.4768 5.10291 64.6346 5.38092 64.7924C5.27779 64.2695 5.2733 63.733 5.37195 63.21C5.43921 62.8493 5.2733 62.4797 4.90114 62.376C4.56932 62.2903 4.13887 62.4932 4.07161 62.8539Z" fill="#727272"/>
<path d="M5.03115 72.6142C5.21947 72.9929 5.40331 73.3716 5.59164 73.7503C5.75755 74.0839 6.21042 74.1606 6.51085 73.9938C6.75298 73.8585 6.91889 73.6421 6.99511 73.3716C7.03098 73.2499 7.0534 73.0966 7.03995 72.9704C7.0265 72.8261 7.08927 72.8667 7.01305 72.9343C6.9144 72.9929 6.81575 73.0515 6.71711 73.1101C6.70814 73.1146 6.69917 73.1146 6.6902 73.1192C6.57811 73.0876 6.46601 73.056 6.34942 73.029C6.58259 73.1642 6.69469 73.3806 7.03547 73.3806C7.43902 73.3806 7.5287 73.1417 7.77083 72.9028C7.67219 72.9614 7.57354 73.02 7.47489 73.0786C7.34486 72.9974 7.21483 72.9163 7.08479 72.8306C7.1386 73.1913 7.59148 73.3897 7.91432 73.304C8.29994 73.1958 8.43894 72.8351 8.38513 72.47C8.32236 72.0642 7.94122 71.7622 7.54664 71.7216C7.08479 71.6765 6.78437 71.929 6.56465 72.3077C6.64537 72.2265 6.72608 72.1454 6.80679 72.0642C6.78437 72.0822 6.75746 72.1003 6.73504 72.1183C6.84714 72.0868 6.95924 72.0552 7.07582 72.0281C7.0534 72.0281 7.0265 72.0281 7.00408 72.0281C7.11618 72.0597 7.22828 72.0913 7.34486 72.1183C7.26415 72.0732 7.0534 71.8433 6.87405 71.7937C6.61846 71.7216 6.34942 71.7757 6.13868 71.9335C5.95035 72.0732 5.82032 72.2806 5.75306 72.5015C5.70822 72.6413 5.75755 72.9253 5.6858 73.0245C5.76651 72.9433 5.84722 72.8622 5.92793 72.781C5.90103 72.7946 5.87413 72.8126 5.84274 72.8261C6.14765 72.9073 6.45704 72.9884 6.76195 73.0696C6.57362 72.6909 6.38978 72.3122 6.20145 71.9335C5.80687 71.149 4.64553 71.8343 5.03115 72.6142Z" fill="#727272"/>
<path d="M9.18329 82.6587C9.16087 83.2403 9.76172 83.5694 10.2684 83.4116C10.5105 83.335 10.6854 83.1637 10.802 82.9473C10.8199 82.9112 10.8379 82.8706 10.8558 82.8346C10.9544 82.6768 10.8558 82.7219 10.5509 82.9788C10.4119 82.9608 10.4747 82.9608 10.5733 83.0149C10.8917 83.1907 11.3087 83.0915 11.4925 82.7715C11.6719 82.4604 11.5687 82.0231 11.2504 81.8472C10.9186 81.6624 10.5419 81.5542 10.1742 81.7075C9.98591 81.7886 9.82897 81.9239 9.72136 82.1042C9.68997 82.1538 9.65859 82.2124 9.64065 82.271C9.63168 82.2891 9.62271 82.3071 9.61375 82.3251C9.84691 82.0636 10.089 82.0411 10.3446 82.2575C10.4029 82.3567 10.4612 82.4559 10.5195 82.5551C10.524 82.5911 10.5285 82.6272 10.5329 82.6633C10.5464 82.3071 10.2146 81.969 9.86036 81.987C9.47923 82.0005 9.19674 82.28 9.18329 82.6587Z" fill="#727272"/>
<path d="M34.0377 49.1576C34.1184 49.5634 34.2574 49.9421 34.4323 50.3163C34.5982 50.6634 35.0511 50.7085 35.3515 50.5597C35.5219 50.4741 35.6609 50.3208 35.7506 50.154C35.7775 50.1044 35.7954 50.0503 35.8223 49.9962C35.9658 49.6851 35.8179 50.154 35.4726 50.1179C35.3605 50.0863 35.2484 50.0548 35.1318 50.0277C35.0556 49.9917 35.2439 50.1134 35.2439 50.1134C35.3157 50.1675 35.365 50.199 35.4502 50.2351C35.625 50.3118 35.8044 50.3253 35.9927 50.2982C36.3963 50.2306 36.6339 49.9691 36.7864 49.6039C36.9254 49.2658 36.6339 48.8601 36.3156 48.7699C35.93 48.6617 35.6295 48.9052 35.486 49.2433C35.643 48.9502 35.8403 48.8871 36.0734 49.0539C36.0555 49.0359 36.0376 49.0179 36.0152 49.0043C35.93 48.9187 35.7685 48.8285 35.652 48.797C35.4367 48.7384 35.2036 48.7744 35.0152 48.8871C34.8583 48.9818 34.7462 49.1306 34.67 49.2929C34.652 49.3334 34.6296 49.3785 34.6117 49.4236C34.5624 49.5679 34.5893 49.4326 34.67 49.3966C34.9749 49.4777 35.2843 49.5589 35.5892 49.64C35.4636 49.374 35.3874 49.0945 35.3291 48.806C35.2618 48.4453 34.8314 48.2424 34.4996 48.3326C34.1364 48.4273 33.9705 48.797 34.0377 49.1576Z" fill="#727272"/>
<path d="M35.5982 56.8982C35.6834 57.3265 35.773 57.7548 35.8582 58.1831C36.0017 58.8909 36.9478 58.7602 37.1541 58.1831C37.2214 57.9892 37.3379 57.863 37.4859 57.7278C37.1317 57.6827 36.7819 57.6376 36.4277 57.5925C36.5443 57.863 36.6653 58.138 36.7819 58.4085C36.9164 58.7196 37.4366 58.8548 37.7011 58.652C37.8626 58.5302 37.9926 58.422 38.0957 58.2417C38.1316 58.1786 38.1719 58.1019 38.1944 58.0298C38.2033 57.9983 38.2168 57.9667 38.2347 57.9397C38.3423 57.7413 38.1361 57.6782 37.6115 57.7503C37.5621 58.111 37.9567 58.4265 38.284 58.4265C38.6876 58.4265 38.9073 58.1155 38.9566 57.7503C39.0329 57.1868 38.5082 56.6773 37.9657 56.6773C37.6922 56.6773 37.4455 56.799 37.2617 56.9929C37.1765 57.0831 37.1182 57.1823 37.0599 57.2905C37.0241 57.3626 36.8851 57.588 37.0241 57.4843C37.329 57.5655 37.6384 57.6466 37.9433 57.7278C37.8267 57.4573 37.7056 57.1823 37.589 56.9118C37.4052 56.488 36.8178 56.515 36.5308 56.7765C36.208 57.0695 36.0017 57.4212 35.8538 57.8269C36.2842 57.8269 36.7192 57.8269 37.1496 57.8269C37.0644 57.3987 36.9747 56.9704 36.8895 56.5421C36.7236 55.6855 35.4233 56.0462 35.5982 56.8982Z" fill="#727272"/>
<path d="M36.7774 67.2403C36.7371 67.5784 36.7774 67.9256 36.8671 68.2502C36.9792 68.6424 37.4904 68.9084 37.8536 68.6559C38.0912 68.4891 38.2347 68.3088 38.3379 68.0383C38.3648 67.9707 38.3872 67.8985 38.4096 67.8264C38.45 67.6821 38.4096 67.876 38.293 67.894C38.172 67.894 38.0554 67.894 37.9343 67.894C37.8222 67.8489 37.7505 67.7813 37.7325 67.6821C37.7191 67.6371 37.7236 67.6506 37.7505 67.7227C37.7639 67.7633 37.7774 67.8084 37.7908 67.8489C37.867 68.0563 37.9747 68.2231 38.145 68.3629C38.5127 68.6604 38.9297 68.6109 39.2885 68.3313C39.5754 68.1059 39.5216 67.61 39.2885 67.3756C39.006 67.0915 38.6248 67.1502 38.3379 67.3756C38.3244 67.3891 38.3065 67.3981 38.293 67.4116C38.3917 67.353 38.4903 67.2944 38.589 67.2358C38.571 67.2403 38.5531 67.2448 38.5352 67.2493C38.6562 67.2493 38.7728 67.2493 38.8939 67.2493C38.9746 67.2629 39.0912 67.5108 39.0418 67.362C39.006 67.2448 38.9611 67.1231 38.8983 67.0194C38.71 66.7129 38.3782 66.537 38.024 66.5731C37.7101 66.6047 37.4545 66.803 37.2841 67.0645C37.2124 67.1772 37.1631 67.3034 37.1227 67.4297C37.1093 67.4702 37.0824 67.5289 37.0779 67.5694C37.0734 67.628 37.0644 67.5559 37.1765 67.4793C37.5038 67.6145 37.8357 67.7498 38.163 67.885C38.1002 67.6641 38.0912 67.4657 38.1181 67.2358C38.1585 66.8706 37.7774 66.5596 37.4456 66.5596C37.0554 66.5641 36.8223 66.8752 36.7774 67.2403Z" fill="#727272"/>
<path d="M36.4053 75.202C36.3694 75.6438 36.4053 76.0766 36.4725 76.5139C36.5532 77.0234 37.2752 77.1541 37.598 76.8115C37.7146 76.6898 37.8356 76.568 37.9612 76.4553C38.0733 76.3561 38.1899 76.257 38.2796 76.1938C37.9522 76.0586 37.6204 75.9233 37.2931 75.7881C37.3334 75.9053 37.3334 75.7701 37.32 75.8963C37.329 75.8016 37.2662 75.9819 37.311 75.9053C37.1362 76.2254 37.2348 76.6447 37.5532 76.8295C37.8626 77.0098 38.2975 76.9107 38.4724 76.5861C38.6652 76.2299 38.728 75.8151 38.5934 75.4274C38.4634 75.0577 37.9791 74.7467 37.607 75.0217C37.2662 75.2741 36.9478 75.5446 36.6564 75.8512C37.033 75.9504 37.4052 76.0496 37.7818 76.1488C37.737 75.8557 37.737 75.5131 37.7594 75.193C37.7863 74.8413 37.4321 74.5032 37.0868 74.5168C36.6922 74.5438 36.4367 74.8233 36.4053 75.202Z" fill="#727272"/>
<path d="M35.9748 84.0339C35.7327 84.4442 35.5489 84.895 35.4457 85.3639C35.365 85.72 35.5534 86.0942 35.9165 86.1979C36.2932 86.3016 36.616 86.0717 36.7461 85.7245C36.7864 85.6118 36.9209 85.3684 36.9927 85.2737C36.6743 85.2737 36.3605 85.2737 36.0421 85.2737C35.9614 85.1745 35.939 85.0663 35.9704 84.9401C35.9121 85.3008 36.0645 85.6659 36.4412 85.7741C36.764 85.8643 37.2079 85.6659 37.2707 85.3008C37.3335 84.9266 37.2662 84.5975 36.9972 84.3179C36.764 84.0745 36.2708 84.0339 36.0466 84.3179C35.7865 84.6425 35.5982 84.9716 35.4502 85.3639C35.8807 85.4856 36.3156 85.6028 36.7461 85.7245C36.8313 85.3458 36.9434 85.0483 37.1407 84.7192C37.3245 84.4036 37.2124 83.9753 36.8985 83.795C36.5802 83.6056 36.1632 83.7183 35.9748 84.0339Z" fill="#727272"/>
<path d="M40.8982 86.7343C40.6202 87.0995 40.4901 87.5504 40.4677 88.0057C40.4543 88.2717 40.6471 88.5287 40.8802 88.6233C41.1448 88.7315 41.4004 88.6684 41.6156 88.4836C41.9474 88.1995 42.2792 87.911 42.611 87.627C42.2568 87.5819 41.907 87.5368 41.5528 87.4917C41.5259 87.4512 41.5394 87.3926 41.5439 87.3475C41.5483 87.3159 41.6201 87.2077 41.5483 87.3204C41.3555 87.6315 41.4811 88.0643 41.7905 88.2446C42.1133 88.434 42.5169 88.3123 42.7097 88.0012C42.9384 87.636 42.9339 87.1717 42.7142 86.802C42.4765 86.4052 41.9878 86.3827 41.656 86.6667C41.3241 86.9507 40.9923 87.2393 40.6605 87.5233C41.0416 87.6811 41.4273 87.8434 41.8084 88.0012C41.8174 87.7983 41.7725 88.0913 41.8174 87.8975C41.8353 87.8299 41.8532 87.7577 41.8757 87.6901C41.8398 87.7848 41.9295 87.5954 41.9295 87.5909C41.9653 87.5278 42.0057 87.4692 42.0505 87.4151C42.2702 87.1221 42.0954 86.6577 41.8084 86.4909C41.4721 86.288 41.1224 86.4413 40.8982 86.7343Z" fill="#727272"/>
<path d="M43.3823 77.88C43.2881 78.3939 43.2343 78.9124 43.2298 79.4398C43.2208 80.1025 44.158 80.373 44.4853 79.7825C44.6871 79.4128 44.9247 79.0927 45.2207 78.7951C44.9472 78.8312 44.6781 78.8673 44.4046 78.8988C44.3911 78.8898 44.3732 78.8763 44.3598 78.8673C44.3015 78.7681 44.2432 78.6689 44.1849 78.5697C44.1714 78.5292 44.2163 78.4029 44.1714 78.5472C44.14 78.6373 44.1221 78.7816 44.1176 78.8673C44.1087 79.0837 44.1714 79.2956 44.297 79.4714C44.4405 79.6652 44.6781 79.796 44.9247 79.796C45.0593 79.796 45.2162 79.7554 45.3328 79.6923C45.3552 79.6788 45.3731 79.6698 45.3955 79.6562C45.5032 79.5886 45.4718 79.5841 45.3014 79.6427C45.1893 79.6111 45.0772 79.5796 44.9606 79.5525C44.7812 79.4624 44.7678 79.3587 44.7857 79.2279C44.7364 79.5886 44.8754 79.9538 45.2565 80.062C45.5704 80.1476 46.0323 79.9538 46.0861 79.5886C46.1399 79.2009 46.1219 78.8087 45.826 78.5156C45.678 78.3714 45.4538 78.2857 45.2476 78.2902C45.1131 78.2947 44.9561 78.3398 44.8395 78.4029C44.8081 78.421 44.6602 78.4841 44.7454 78.466C44.8664 78.466 44.983 78.466 45.1041 78.466C45.0862 78.4615 45.0637 78.4525 45.0458 78.448C45.1444 78.5066 45.2431 78.5652 45.3417 78.6238C45.3866 78.998 45.4269 79.0927 45.4673 78.9078C45.4852 78.8628 45.4942 78.8177 45.5032 78.7681C45.5256 78.6644 45.5345 78.5562 45.5256 78.448C45.5076 78.1505 45.3552 77.8664 45.0817 77.7357C44.8126 77.6004 44.4898 77.6185 44.2656 77.8394C43.8934 78.2136 43.5751 78.6373 43.3195 79.0972C43.7365 79.2099 44.1535 79.3226 44.575 79.4398C44.5795 79.0386 44.6109 78.6373 44.6826 78.2406C44.7454 77.88 44.584 77.5103 44.2118 77.4066C43.88 77.3164 43.445 77.5193 43.3823 77.88Z" fill="#727272"/>
<path d="M44.288 68.5704C44.0952 69.0348 44.0907 69.5622 44.2387 70.0401C44.445 70.6983 45.3148 70.6668 45.5346 70.0401C45.6467 69.7155 45.8484 69.4585 46.104 69.2331C45.7229 69.0753 45.3373 68.913 44.9561 68.7553C44.9696 68.9852 44.9875 69.2151 45.001 69.4405C45.0279 69.8372 45.2879 70.0717 45.6736 70.1168C45.8888 70.1438 46.0861 70.0717 46.2654 69.9545C46.3417 69.9049 46.4089 69.8463 46.4672 69.7786C46.4896 69.7471 46.5165 69.72 46.539 69.693C46.6197 69.6073 46.5524 69.6254 46.3327 69.7471C46.2206 69.7155 46.1085 69.684 45.9919 69.6569C45.956 69.6163 45.9157 69.5758 45.8798 69.5352C45.8484 69.4225 45.817 69.3098 45.7901 69.1926C45.7901 69.2106 45.7901 69.2286 45.7946 69.2467C45.826 69.134 45.8574 69.0212 45.8843 68.904C45.8753 68.9176 45.8664 68.9356 45.8574 68.9491C45.4 69.693 46.5659 70.3737 47.0187 69.6299C47.2878 69.1926 47.0636 68.6245 46.5928 68.4532C46.3461 68.363 46.095 68.3811 45.8664 68.5073C45.7722 68.5569 45.6915 68.629 45.6153 68.7057C45.5973 68.7237 45.5839 68.7462 45.5659 68.7643C45.4763 68.8544 45.5121 68.8544 45.6736 68.7643C45.8978 68.9897 46.122 69.2151 46.3461 69.4405C46.3327 69.2106 46.3148 68.9807 46.3013 68.7553C46.261 68.1556 45.6018 67.8806 45.1534 68.2774C44.723 68.6606 44.427 69.1385 44.2387 69.6795C44.6692 69.6795 45.1041 69.6795 45.5346 69.6795C45.4494 69.4044 45.4763 69.1926 45.5839 68.9311C45.7229 68.593 45.4314 68.1872 45.1131 68.097C44.7274 67.9888 44.427 68.2323 44.288 68.5704Z" fill="#727272"/>
<path d="M43.7276 56.7178C43.7634 57.0964 43.8038 57.4797 43.8397 57.8584C43.871 58.192 44.0683 58.4805 44.4226 58.5211C44.7454 58.5617 45.0772 58.3678 45.1624 58.0387C45.2342 57.7502 45.3328 57.4887 45.4763 57.2317C45.0907 57.2317 44.7006 57.2317 44.315 57.2317C44.3822 57.3579 44.4495 57.4842 44.5123 57.6059C44.7589 58.0702 45.4135 58.0161 45.6736 57.6059C45.696 57.5698 45.7274 57.5383 45.7274 57.5247C45.7991 57.4616 45.7498 57.4661 45.5884 57.5383C45.5167 57.5788 45.4449 57.5879 45.3732 57.5743C45.2925 57.4932 45.2118 57.412 45.131 57.3309C45.1266 57.3128 45.1221 57.2948 45.1176 57.2768C45.3777 58.1018 46.678 57.7502 46.4135 56.9161C46.2789 56.4923 45.9112 56.2263 45.4629 56.2399C45.0279 56.2534 44.723 56.578 44.5078 56.9206C44.8934 56.9206 45.2835 56.9206 45.6691 56.9206C45.6019 56.7944 45.5346 56.6682 45.4718 56.5464C45.2387 56.1046 44.5481 56.1091 44.3105 56.5464C44.1177 56.9026 43.9652 57.2813 43.8621 57.678C44.3015 57.7366 44.7409 57.7997 45.1848 57.8584C45.149 57.4797 45.1086 57.0964 45.0727 56.7178C45.0369 56.3526 44.7903 56.0415 44.4002 56.0415C44.0639 56.0415 43.6917 56.3526 43.7276 56.7178Z" fill="#727272"/>
<path d="M40.3959 49.1575C40.5663 49.5903 40.7771 49.9509 41.073 50.3116C41.4138 50.7263 42.055 50.4559 42.1985 50.014C42.3016 49.6894 42.3465 49.3378 42.3151 48.9997C41.8981 49.1124 41.4811 49.2251 41.0596 49.3423C41.1896 49.5948 41.3735 49.8247 41.5932 50.005C41.8757 50.2349 42.2702 50.28 42.5438 50.005C42.7814 49.7661 42.8262 49.2792 42.5438 49.0493C42.463 48.9861 42.3868 48.914 42.324 48.8374C42.2568 48.7517 42.3644 48.905 42.3061 48.8103C42.2747 48.7607 42.2478 48.7111 42.2209 48.6615C42.0819 48.391 41.7366 48.2693 41.4586 48.346C41.1941 48.4181 40.9385 48.7066 40.9654 48.9997C40.9923 49.2837 40.9833 49.3964 40.8982 49.6534C41.2748 49.5542 41.647 49.455 42.0236 49.3558C41.9653 49.2882 41.907 49.2025 41.8398 49.0853C41.8084 49.0312 41.777 48.9726 41.7456 48.9185C41.7366 48.905 41.6649 48.7337 41.6873 48.8013C41.5528 48.4632 41.2389 48.2242 40.8578 48.3279C40.5439 48.4136 40.2614 48.8148 40.3959 49.1575Z" fill="#727272"/>
<path d="M47.1891 48.6345C47.2429 48.9185 47.3506 49.1935 47.4985 49.446C47.651 49.703 47.9693 49.8382 48.2563 49.7571C48.5612 49.6714 48.7226 49.4054 48.7495 49.1034C48.7809 48.7878 48.8123 48.4677 48.8437 48.1521C48.5074 48.346 48.1711 48.5398 47.8303 48.7382C48.0366 48.8915 48.2429 49.0493 48.4491 49.2025C48.7406 49.4189 49.2024 49.2521 49.3683 48.9591C49.5701 48.6165 49.4177 48.2513 49.1262 48.0349C48.9199 47.8816 48.7137 47.7238 48.5074 47.5705C48.3191 47.4308 48.0187 47.4578 47.8303 47.5705C47.6106 47.7013 47.5209 47.9087 47.4985 48.1566C47.4671 48.4722 47.4358 48.7923 47.4044 49.1079C47.8214 48.9952 48.2384 48.8825 48.6599 48.7652C48.5523 48.5849 48.5254 48.4992 48.485 48.2783C48.4177 47.9177 47.9873 47.7148 47.6555 47.805C47.2878 47.9042 47.1264 48.2738 47.1891 48.6345Z" fill="#727272"/>
<path d="M50.1754 56.7494C50.2382 57.1236 50.3279 57.4843 50.449 57.8449C50.588 58.2732 51.0364 58.4536 51.4354 58.2507C51.682 58.1245 51.839 57.89 51.9018 57.624C51.9331 57.5023 51.9376 57.3716 51.9466 57.2408C51.9466 57.1957 51.9511 57.1507 51.9556 57.1056C51.9466 57.2949 51.821 57.4167 51.5744 57.4798C51.4623 57.4482 51.3502 57.4167 51.2337 57.3896C51.7628 57.6511 52.1753 57.8269 52.7806 57.6917C53.6236 57.5023 53.2694 56.1949 52.4219 56.3888C52.2112 56.4384 52.0901 56.3121 51.9107 56.222C51.5969 56.0687 51.2381 56.0912 50.9646 56.3076C50.7584 56.4699 50.6642 56.6953 50.6283 56.9523C50.6149 57.0515 50.6104 57.1462 50.6014 57.2453C50.5925 57.331 50.5969 57.3355 50.6059 57.2679C50.5611 57.4212 50.6104 57.358 50.7584 57.0875C51.0857 57.2228 51.4175 57.358 51.7448 57.4933C51.6282 57.1326 51.5386 56.772 51.4713 56.3978C51.4085 56.0371 50.9691 55.8342 50.6418 55.9244C50.2651 56.0191 50.1127 56.3888 50.1754 56.7494Z" fill="#727272"/>
<path d="M51.7403 66.5325C51.6955 66.8752 51.6462 67.2178 51.6013 67.5604C51.561 67.8625 51.6282 68.16 51.9107 68.3223C52.1439 68.4621 52.5474 68.4486 52.7268 68.2186C52.8254 68.0879 52.9241 67.9797 53.081 67.9256C52.7985 67.7092 52.5116 67.4928 52.2291 67.2719C52.238 67.5424 52.2425 67.8129 52.2515 68.0834C52.265 68.5342 52.6685 68.8408 53.1034 68.7371C53.3187 68.6875 53.498 68.5793 53.6684 68.4441L53.8343 68.3133C53.8209 68.2953 53.6057 68.3088 53.5563 68.2547C53.498 68.1555 53.4397 68.0563 53.3815 67.9572C53.3904 67.9797 53.3949 68.0022 53.4039 68.0248C53.6864 68.8408 54.9867 68.4891 54.6997 67.6641C54.5428 67.2178 54.1841 66.9653 53.7088 66.9789C53.516 66.9834 53.3142 67.0465 53.1483 67.1457C53.0138 67.2268 52.8882 67.3936 52.7358 67.4297C53.0183 67.6461 53.3052 67.8625 53.5877 68.0834C53.5787 67.8129 53.5743 67.5424 53.5653 67.2719C53.5563 66.8571 53.1393 66.4739 52.7133 66.6182C52.3412 66.7489 52.0094 66.9473 51.7672 67.2629C52.1439 67.4838 52.5161 67.7002 52.8927 67.9211C52.9375 67.5785 52.9869 67.2358 53.0317 66.8932C53.081 66.5325 52.9465 66.1674 52.5609 66.0592C52.256 65.9735 51.7897 66.1674 51.7403 66.5325Z" fill="#727272"/>
<path d="M49.8078 77.7311C49.7136 78.1144 49.6194 78.4976 49.5298 78.8808C49.4446 79.2324 49.6374 79.6201 50.0006 79.7148C50.3234 79.8005 50.6328 79.7373 50.8974 79.5255C51.1081 79.3541 51.1843 79.0881 51.3771 78.9213C51.2785 78.9799 51.1798 79.0386 51.0812 79.0972C51.1126 79.0836 51.144 79.0701 51.1798 79.0566C51.0588 79.0566 50.9422 79.0566 50.8211 79.0566C50.8525 79.0611 50.8839 79.0701 50.9198 79.0746C50.7853 78.9709 50.6507 78.8672 50.5162 78.7635C50.5072 78.7094 50.5117 78.723 50.5252 78.8131C50.5566 78.8898 50.588 78.9664 50.6238 79.0431C50.7135 79.1918 50.8525 79.2955 51.005 79.3632C51.1664 79.4353 51.3457 79.4443 51.5206 79.4082C51.5789 79.4037 51.6372 79.3857 51.691 79.3632C51.9556 79.2775 51.9018 79.2504 51.5296 79.2865C51.4489 79.2054 51.3682 79.1242 51.2875 79.0431C51.2964 79.0566 51.3099 79.0746 51.3188 79.0881C51.2875 78.9754 51.2561 78.8627 51.2292 78.7455C51.2292 78.7635 51.2292 78.7861 51.2247 78.8041C51.1843 79.6742 52.5295 79.6742 52.5699 78.8041C52.5878 78.4344 52.3367 78.1234 51.9914 78.0152C51.83 77.9656 51.6507 77.9611 51.4847 78.0016C51.4265 78.0152 51.1978 78.0603 51.265 78.0693C51.3771 78.1008 51.4892 78.1324 51.6058 78.1594C51.5834 78.1459 51.5655 78.1279 51.543 78.1143C51.6237 78.1955 51.7045 78.2766 51.7852 78.3578C51.7538 78.2947 51.682 78.0557 51.5699 77.9385C51.3906 77.7582 51.0633 77.677 50.8211 77.7447C50.6238 77.7988 50.4534 77.916 50.3189 78.0648C50.2472 78.1459 50.1844 78.2361 50.1306 78.3307C50.1127 78.3623 50.0992 78.3939 50.0813 78.4209C49.9557 78.5922 50.0499 78.5877 50.3638 78.4029C50.5207 78.6824 50.6776 78.9574 50.8346 79.2369C50.9287 78.8537 51.0229 78.4705 51.1126 78.0873C51.3099 77.2442 50.014 76.8836 49.8078 77.7311Z" fill="#727272"/>
<path d="M48.3819 85.8642C48.4805 85.9408 48.5792 86.0174 48.6778 86.0941C48.9648 86.3195 49.4311 86.1392 49.597 85.8506C49.7988 85.5035 49.6463 85.1473 49.3549 84.9264C49.2562 84.8498 49.1576 84.7731 49.0589 84.6965C48.772 84.4711 48.3056 84.6514 48.1397 84.94C47.938 85.2871 48.0949 85.6387 48.3819 85.8642Z" fill="#727272"/>
</svg>
